<?xml version="1.0" encoding="UTF-8" standalone="no"?><!DOCTYPE svg PUBLIC "-//W3C//DTD SVG 1.1//EN" "http://www.w3.org/Graphics/SVG/1.1/DTD/svg11.dtd"><svg width="100%" height="100%" viewBox="0 0 59 11" version="1.1" xmlns="http://www.w3.org/2000/svg" xmlns:xlink="http://www.w3.org/1999/xlink" xml:space="preserve" xmlns:serif="http://www.serif.com/" style="fill-rule:evenodd;clip-rule:evenodd;stroke-linejoin:round;stroke-miterlimit:2;"><g><path d="M0.727,1.629l0.14,-0.141c0.047,-0.039 0.104,-0.086 0.17,-0.14c0.067,-0.055 0.143,-0.11 0.229,-0.164c0.046,-0.032 0.095,-0.061 0.146,-0.088c0.051,-0.028 0.1,-0.057 0.147,-0.088c0.054,-0.031 0.111,-0.061 0.17,-0.088c0.058,-0.027 0.115,-0.057 0.169,-0.088c0.063,-0.023 0.125,-0.047 0.188,-0.07c0.062,-0.024 0.129,-0.043 0.199,-0.059c0.031,-0.015 0.065,-0.027 0.1,-0.035c0.035,-0.008 0.068,-0.016 0.099,-0.023l0.211,-0.047c0.071,-0.016 0.141,-0.026 0.211,-0.03c0.071,-0.004 0.137,-0.009 0.199,-0.017c0.071,-0.008 0.141,-0.01 0.211,-0.006c0.071,0.004 0.137,0.006 0.2,0.006c0.07,0 0.136,0.006 0.199,0.017c0.062,0.012 0.125,0.022 0.187,0.03c0.055,0 0.112,0.007 0.17,0.023c0.059,0.016 0.112,0.031 0.158,0.047c0.055,0.008 0.106,0.018 0.153,0.029c0.047,0.012 0.09,0.026 0.129,0.041c0.047,0.016 0.088,0.032 0.123,0.047c0.035,0.016 0.068,0.028 0.099,0.035c0.055,0.024 0.098,0.041 0.129,0.053c0.032,0.012 0.047,0.018 0.047,0.018l0.035,0.011c0.063,0.024 0.123,0.022 0.182,-0.006c0.059,-0.027 0.103,-0.072 0.135,-0.134c0.023,-0.071 0.021,-0.137 -0.006,-0.199c-0.027,-0.063 -0.072,-0.106 -0.135,-0.129c0,0 -0.017,-0.008 -0.053,-0.024c-0.035,-0.015 -0.088,-0.035 -0.158,-0.058c-0.031,-0.016 -0.066,-0.032 -0.105,-0.047c-0.039,-0.016 -0.082,-0.032 -0.129,-0.047c-0.039,-0.016 -0.086,-0.031 -0.141,-0.047c-0.055,-0.016 -0.109,-0.031 -0.164,-0.047c-0.062,-0.016 -0.125,-0.033 -0.187,-0.053c-0.063,-0.019 -0.129,-0.033 -0.2,-0.041c-0.07,-0.007 -0.14,-0.017 -0.211,-0.029c-0.07,-0.012 -0.144,-0.021 -0.222,-0.029c-0.071,0 -0.147,-0.002 -0.229,-0.006c-0.082,-0.004 -0.162,-0.006 -0.24,-0.006c-0.078,0.008 -0.158,0.014 -0.24,0.018c-0.082,0.003 -0.162,0.013 -0.24,0.029l-0.235,0.047c-0.047,0.008 -0.088,0.017 -0.123,0.029c-0.035,0.012 -0.072,0.022 -0.111,0.029c-0.078,0.016 -0.154,0.039 -0.229,0.071c-0.074,0.031 -0.146,0.058 -0.216,0.082c-0.071,0.031 -0.141,0.06 -0.211,0.088c-0.071,0.027 -0.133,0.056 -0.188,0.087c-0.062,0.04 -0.123,0.075 -0.182,0.106c-0.058,0.031 -0.111,0.062 -0.158,0.094c-0.109,0.07 -0.203,0.134 -0.281,0.193c-0.078,0.059 -0.145,0.111 -0.199,0.158c-0.031,0.024 -0.057,0.045 -0.076,0.065l-0.1,0.099c-0.063,0.063 -0.094,0.137 -0.094,0.223c0,0.086 0.031,0.156 0.094,0.211c0.062,0.062 0.137,0.094 0.223,0.094c0.086,0 0.156,-0.032 0.211,-0.094Zm2.437,0.762c0.32,0 0.594,0.113 0.82,0.339c0.227,0.227 0.34,0.5 0.34,0.821c0,0.32 -0.113,0.595 -0.34,0.826c-0.226,0.23 -0.5,0.346 -0.82,0.346c-0.32,-0 -0.596,-0.116 -0.826,-0.346c-0.231,-0.231 -0.346,-0.506 -0.346,-0.826c0,-0.321 0.115,-0.594 0.346,-0.821c0.23,-0.226 0.506,-0.339 0.826,-0.339Zm-1.137,0.023c-0.148,0.141 -0.265,0.311 -0.351,0.51c-0.086,0.199 -0.129,0.408 -0.129,0.627c0,0.32 0.084,0.607 0.252,0.861c0.168,0.254 0.385,0.447 0.65,0.58c-0.445,-0.125 -0.824,-0.281 -1.136,-0.469c-0.313,-0.187 -0.532,-0.332 -0.657,-0.433c0.071,-0.36 0.227,-0.686 0.469,-0.979c0.242,-0.293 0.543,-0.525 0.902,-0.697Zm3.868,2.027c-0.227,0.204 -0.586,0.381 -1.079,0.534c-0.492,0.152 -0.984,0.213 -1.476,0.181c0.406,-0.047 0.746,-0.222 1.019,-0.527c0.274,-0.305 0.411,-0.664 0.411,-1.078c0,-0.297 -0.073,-0.569 -0.217,-0.815c-0.145,-0.246 -0.338,-0.439 -0.58,-0.58c0.75,0.117 1.281,0.387 1.593,0.809c0.313,0.422 0.469,0.848 0.469,1.277c0,0.008 -0.01,0.029 -0.029,0.065c-0.02,0.035 -0.057,0.08 -0.111,0.134Zm-2.567,-2.941c-0.43,0 -0.836,0.07 -1.219,0.211c-0.382,0.133 -0.72,0.32 -1.013,0.562c-0.293,0.243 -0.533,0.524 -0.721,0.844c-0.195,0.328 -0.312,0.68 -0.352,1.055l0,0.012c-0.007,0.054 -0.013,0.107 -0.017,0.158c-0.004,0.051 -0.006,0.103 -0.006,0.158c0,0.414 0.086,0.805 0.258,1.172c0.18,0.359 0.42,0.676 0.721,0.949c0.3,0.274 0.65,0.488 1.048,0.645c0.407,0.156 0.84,0.234 1.301,0.234c0.289,0 0.576,-0.035 0.861,-0.105c0.286,-0.071 0.557,-0.172 0.815,-0.305c0.078,-0.039 0.129,-0.1 0.152,-0.182c0.024,-0.082 0.016,-0.162 -0.023,-0.24c-0.039,-0.07 -0.1,-0.117 -0.182,-0.141c-0.082,-0.023 -0.162,-0.015 -0.24,0.024c-0.203,0.109 -0.424,0.193 -0.662,0.252c-0.238,0.058 -0.479,0.088 -0.721,0.088c-0.344,0 -0.668,-0.055 -0.973,-0.164c-0.304,-0.102 -0.576,-0.245 -0.814,-0.428c-0.238,-0.184 -0.436,-0.401 -0.592,-0.651c-0.156,-0.25 -0.258,-0.519 -0.304,-0.808c0.257,0.172 0.605,0.355 1.043,0.551c0.437,0.195 0.941,0.32 1.511,0.375c0.297,0.023 0.602,0.015 0.914,-0.024c0.305,-0.039 0.596,-0.099 0.873,-0.181c0.278,-0.082 0.534,-0.182 0.768,-0.299c0.226,-0.117 0.41,-0.242 0.551,-0.375c0.109,-0.102 0.193,-0.207 0.252,-0.317c0.058,-0.109 0.088,-0.218 0.088,-0.328c0,-0.406 -0.079,-0.781 -0.235,-1.125c-0.164,-0.336 -0.39,-0.623 -0.68,-0.861c-0.289,-0.238 -0.64,-0.424 -1.054,-0.557c-0.406,-0.133 -0.856,-0.199 -1.348,-0.199Zm-0.176,2.859c0.227,0.008 0.42,-0.068 0.58,-0.228c0.161,-0.16 0.241,-0.354 0.241,-0.58l-0.809,0l0,-0.809c-0.226,0 -0.42,0.08 -0.58,0.24c-0.16,0.161 -0.236,0.354 -0.229,0.581c0,0.218 0.079,0.406 0.235,0.562c0.156,0.156 0.344,0.234 0.562,0.234Z" style="fill:#402f48;fill-rule:nonzero;"/><path d="M10.395,6.914c-0.336,0 -0.649,-0.066 -0.938,-0.199c-0.289,-0.125 -0.543,-0.297 -0.762,-0.516c-0.218,-0.219 -0.39,-0.472 -0.515,-0.761c-0.133,-0.297 -0.2,-0.61 -0.2,-0.938c0,-0.336 0.067,-0.648 0.2,-0.938c0.125,-0.289 0.297,-0.542 0.515,-0.761c0.219,-0.219 0.473,-0.391 0.762,-0.516c0.289,-0.133 0.602,-0.199 0.938,-0.199c0.328,0 0.64,0.066 0.937,0.199c0.289,0.125 0.543,0.297 0.762,0.516c0.219,0.219 0.39,0.472 0.515,0.762c0.125,0.289 0.188,0.601 0.188,0.937c0,0.328 -0.063,0.641 -0.188,0.938c-0.125,0.289 -0.297,0.542 -0.515,0.761c-0.219,0.219 -0.473,0.391 -0.762,0.516c-0.297,0.133 -0.609,0.199 -0.937,0.199Zm0,-5.414c-0.415,0 -0.805,0.078 -1.172,0.234c-0.36,0.157 -0.676,0.371 -0.95,0.645c-0.273,0.273 -0.488,0.59 -0.644,0.949c-0.156,0.367 -0.234,0.758 -0.234,1.172c0,0.414 0.078,0.805 0.234,1.172c0.156,0.359 0.371,0.676 0.644,0.949c0.274,0.274 0.59,0.488 0.95,0.645c0.367,0.156 0.757,0.234 1.172,0.234c0.492,0 0.947,-0.111 1.365,-0.334c0.418,-0.223 0.763,-0.518 1.037,-0.885l0,0.926c0,0.078 0.029,0.147 0.088,0.205c0.058,0.059 0.131,0.088 0.217,0.088c0.078,0 0.146,-0.029 0.205,-0.088c0.058,-0.058 0.088,-0.127 0.088,-0.205l0,-2.707c0,-0.414 -0.079,-0.805 -0.235,-1.172c-0.156,-0.359 -0.371,-0.676 -0.644,-0.949c-0.274,-0.274 -0.59,-0.488 -0.95,-0.645c-0.367,-0.156 -0.757,-0.234 -1.171,-0.234Z" style="fill:#402f48;fill-rule:nonzero;"/><path d="M17.449,7.02c-0.336,-0 -0.652,-0.067 -0.949,-0.2c-0.305,-0.125 -0.568,-0.299 -0.791,-0.521c-0.223,-0.223 -0.396,-0.483 -0.521,-0.779c-0.133,-0.305 -0.2,-0.625 -0.2,-0.961c0,-0.336 0.067,-0.653 0.2,-0.95c0.125,-0.304 0.298,-0.566 0.521,-0.785c0.223,-0.219 0.486,-0.394 0.791,-0.527c0.297,-0.125 0.613,-0.188 0.949,-0.188c0.336,-0 0.656,0.063 0.961,0.188c0.297,0.133 0.557,0.308 0.779,0.527c0.223,0.219 0.397,0.481 0.522,0.785c0.133,0.297 0.199,0.614 0.199,0.95c0,0.336 -0.066,0.656 -0.199,0.961c-0.125,0.296 -0.299,0.556 -0.522,0.779c-0.222,0.222 -0.482,0.396 -0.779,0.521c-0.305,0.133 -0.625,0.2 -0.961,0.2Zm0,-5.52c-0.422,0 -0.816,0.082 -1.183,0.246c-0.375,0.156 -0.702,0.373 -0.979,0.65c-0.277,0.278 -0.494,0.604 -0.65,0.979c-0.164,0.367 -0.246,0.762 -0.246,1.184c0,0.421 0.082,0.82 0.246,1.195c0.156,0.367 0.373,0.689 0.65,0.967c0.277,0.277 0.604,0.498 0.979,0.662c0.367,0.156 0.761,0.234 1.183,0.234c0.5,0 0.965,-0.113 1.395,-0.34c0.429,-0.226 0.785,-0.527 1.066,-0.902l0,1.066c0,0.336 -0.066,0.653 -0.199,0.95c-0.125,0.304 -0.299,0.568 -0.522,0.791c-0.222,0.222 -0.482,0.396 -0.779,0.521c-0.305,0.133 -0.625,0.199 -0.961,0.199c-0.086,0 -0.158,0.03 -0.217,0.088c-0.058,0.059 -0.087,0.127 -0.087,0.205c0,0.086 0.029,0.159 0.087,0.217c0.059,0.059 0.131,0.088 0.217,0.088c0.422,0 0.821,-0.082 1.196,-0.246c0.367,-0.156 0.689,-0.373 0.966,-0.65c0.278,-0.278 0.498,-0.604 0.662,-0.979c0.157,-0.367 0.235,-0.762 0.235,-1.184l0,-2.882c0,-0.422 -0.078,-0.817 -0.235,-1.184c-0.164,-0.375 -0.384,-0.701 -0.662,-0.979c-0.277,-0.277 -0.599,-0.494 -0.966,-0.65c-0.375,-0.164 -0.774,-0.246 -1.196,-0.246Z" style="fill:#402f48;fill-rule:nonzero;"/><path d="M21.961,4.5c-0.016,0 -0.029,-0.002 -0.041,-0.006c-0.012,-0.004 -0.025,-0.006 -0.041,-0.006c0.008,-0.328 0.074,-0.636 0.199,-0.925c0.125,-0.297 0.297,-0.553 0.516,-0.768c0.218,-0.215 0.472,-0.385 0.761,-0.51c0.297,-0.133 0.61,-0.199 0.938,-0.199c0.32,0 0.621,0.059 0.902,0.176c0.282,0.117 0.53,0.277 0.744,0.48c0.215,0.203 0.389,0.442 0.522,0.715c0.133,0.273 0.211,0.57 0.234,0.891c-0.109,0.054 -0.285,0.132 -0.527,0.234c-0.25,0.102 -0.572,0.18 -0.967,0.234c-0.394,0.055 -0.861,0.067 -1.4,0.036c-0.539,-0.032 -1.153,-0.149 -1.84,-0.352Zm2.332,-3c-0.414,0 -0.805,0.078 -1.172,0.234c-0.359,0.157 -0.676,0.371 -0.949,0.645c-0.274,0.273 -0.488,0.59 -0.645,0.949c-0.156,0.367 -0.234,0.758 -0.234,1.172c-0,0.414 0.078,0.805 0.234,1.172c0.157,0.359 0.371,0.676 0.645,0.949c0.273,0.274 0.59,0.488 0.949,0.645c0.367,0.156 0.758,0.234 1.172,0.234c0.297,0 0.588,-0.043 0.873,-0.129c0.285,-0.086 0.553,-0.215 0.803,-0.387c0.07,-0.046 0.113,-0.109 0.129,-0.187c0.015,-0.078 -0,-0.152 -0.047,-0.223c-0.047,-0.062 -0.112,-0.101 -0.194,-0.117c-0.082,-0.016 -0.154,-0.004 -0.216,0.035c-0.204,0.141 -0.418,0.246 -0.645,0.317c-0.226,0.07 -0.461,0.105 -0.703,0.105c-0.555,0 -1.047,-0.17 -1.477,-0.51c-0.429,-0.34 -0.714,-0.767 -0.855,-1.283c0.867,0.234 1.625,0.348 2.273,0.34c0.641,-0.008 1.178,-0.063 1.612,-0.164c0.433,-0.102 0.759,-0.219 0.978,-0.352c0.219,-0.125 0.336,-0.195 0.352,-0.211l0.117,-0.234c0,-0.414 -0.078,-0.805 -0.234,-1.172c-0.157,-0.359 -0.372,-0.676 -0.645,-0.949c-0.273,-0.274 -0.594,-0.488 -0.961,-0.645c-0.359,-0.156 -0.746,-0.234 -1.16,-0.234Z" style="fill:#402f48;fill-rule:nonzero;"/><path d="M31.289,1.5c-0.492,0 -0.949,0.111 -1.371,0.334c-0.422,0.223 -0.77,0.518 -1.043,0.885l0,-0.692c0,-0.078 -0.027,-0.146 -0.082,-0.205c-0.055,-0.058 -0.125,-0.088 -0.211,-0.088c-0.078,0 -0.146,0.03 -0.205,0.088c-0.059,0.059 -0.088,0.127 -0.088,0.205l0,5.18c0,0.078 0.029,0.147 0.088,0.205c0.059,0.059 0.127,0.088 0.205,0.088c0.086,0 0.156,-0.029 0.211,-0.088c0.055,-0.058 0.082,-0.127 0.082,-0.205l0,-2.707c0,-0.328 0.066,-0.641 0.199,-0.938c0.125,-0.289 0.297,-0.542 0.516,-0.761c0.219,-0.219 0.472,-0.391 0.762,-0.516c0.289,-0.133 0.601,-0.199 0.937,-0.199c0.078,0 0.147,-0.027 0.205,-0.082c0.059,-0.055 0.088,-0.125 0.088,-0.211c0,-0.078 -0.029,-0.147 -0.088,-0.205c-0.058,-0.059 -0.127,-0.088 -0.205,-0.088Z" style="fill:#402f48;fill-rule:nonzero;"/><path d="M33.293,4.5c-0.016,0 -0.029,-0.002 -0.041,-0.006c-0.012,-0.004 -0.025,-0.006 -0.041,-0.006c0.008,-0.328 0.074,-0.636 0.199,-0.925c0.125,-0.297 0.297,-0.553 0.516,-0.768c0.219,-0.215 0.472,-0.385 0.761,-0.51c0.297,-0.133 0.61,-0.199 0.938,-0.199c0.32,0 0.621,0.059 0.902,0.176c0.282,0.117 0.53,0.277 0.744,0.48c0.215,0.203 0.389,0.442 0.522,0.715c0.133,0.273 0.211,0.57 0.234,0.891c-0.109,0.054 -0.285,0.132 -0.527,0.234c-0.25,0.102 -0.572,0.18 -0.967,0.234c-0.394,0.055 -0.861,0.067 -1.4,0.036c-0.539,-0.032 -1.153,-0.149 -1.84,-0.352Zm2.332,-3c-0.414,0 -0.805,0.078 -1.172,0.234c-0.359,0.157 -0.676,0.371 -0.949,0.645c-0.274,0.273 -0.488,0.59 -0.645,0.949c-0.156,0.367 -0.234,0.758 -0.234,1.172c-0,0.414 0.078,0.805 0.234,1.172c0.157,0.359 0.371,0.676 0.645,0.949c0.273,0.274 0.59,0.488 0.949,0.645c0.367,0.156 0.758,0.234 1.172,0.234c0.297,0 0.588,-0.043 0.873,-0.129c0.285,-0.086 0.553,-0.215 0.803,-0.387c0.07,-0.046 0.113,-0.109 0.129,-0.187c0.015,-0.078 -0,-0.152 -0.047,-0.223c-0.047,-0.062 -0.112,-0.101 -0.194,-0.117c-0.082,-0.016 -0.154,-0.004 -0.216,0.035c-0.203,0.141 -0.418,0.246 -0.645,0.317c-0.226,0.07 -0.461,0.105 -0.703,0.105c-0.555,0 -1.047,-0.17 -1.477,-0.51c-0.429,-0.34 -0.714,-0.767 -0.855,-1.283c0.867,0.234 1.625,0.348 2.273,0.34c0.641,-0.008 1.178,-0.063 1.612,-0.164c0.433,-0.102 0.759,-0.219 0.978,-0.352c0.219,-0.125 0.336,-0.195 0.352,-0.211l0.117,-0.234c-0,-0.414 -0.078,-0.805 -0.234,-1.172c-0.157,-0.359 -0.371,-0.676 -0.645,-0.949c-0.273,-0.274 -0.594,-0.488 -0.961,-0.645c-0.359,-0.156 -0.746,-0.234 -1.16,-0.234Z" style="fill:#402f48;fill-rule:nonzero;"/><path d="M45.598,1.5c-0.086,0 -0.16,0.031 -0.223,0.094c-0.063,0.062 -0.094,0.136 -0.094,0.222l0,2.579c0,0.351 -0.062,0.679 -0.187,0.984c-0.133,0.305 -0.315,0.572 -0.545,0.803c-0.231,0.23 -0.498,0.412 -0.803,0.545c-0.305,0.132 -0.633,0.199 -0.984,0.199c-0.344,0 -0.672,-0.067 -0.985,-0.199c-0.304,-0.133 -0.57,-0.315 -0.797,-0.545c-0.226,-0.231 -0.406,-0.498 -0.539,-0.803c-0.132,-0.305 -0.199,-0.633 -0.199,-0.984l0,-2.579c0,-0.086 -0.031,-0.16 -0.094,-0.222c-0.062,-0.063 -0.136,-0.094 -0.222,-0.094c-0.086,0 -0.158,0.031 -0.217,0.094c-0.059,0.062 -0.088,0.136 -0.088,0.222l0,2.579c0,0.437 0.082,0.847 0.246,1.23c0.164,0.375 0.389,0.705 0.674,0.99c0.285,0.285 0.619,0.51 1.002,0.674c0.383,0.172 0.789,0.258 1.219,0.258c0.515,0 0.994,-0.117 1.435,-0.352c0.442,-0.234 0.803,-0.543 1.084,-0.925l0,1.089c0,0.344 -0.062,0.672 -0.187,0.985c-0.133,0.304 -0.315,0.57 -0.545,0.797c-0.231,0.226 -0.498,0.406 -0.803,0.539c-0.305,0.133 -0.633,0.199 -0.984,0.199c-0.086,0 -0.158,0.031 -0.217,0.094c-0.059,0.062 -0.088,0.136 -0.088,0.222c0,0.086 0.029,0.159 0.088,0.217c0.059,0.059 0.131,0.088 0.217,0.088c0.437,0 0.843,-0.082 1.218,-0.246c0.383,-0.164 0.717,-0.389 1.002,-0.674c0.286,-0.285 0.51,-0.619 0.674,-1.002c0.164,-0.383 0.246,-0.789 0.246,-1.219l0,-5.543c0,-0.086 -0.029,-0.16 -0.088,-0.222c-0.058,-0.063 -0.13,-0.094 -0.216,-0.094Z" style="fill:#402f48;fill-rule:nonzero;"/><path d="M47.672,4.5c-0.016,0 -0.029,-0.002 -0.041,-0.006c-0.012,-0.004 -0.026,-0.006 -0.041,-0.006c0.008,-0.328 0.074,-0.636 0.199,-0.925c0.125,-0.297 0.297,-0.553 0.516,-0.768c0.218,-0.215 0.472,-0.385 0.761,-0.51c0.297,-0.133 0.61,-0.199 0.938,-0.199c0.32,0 0.621,0.059 0.902,0.176c0.281,0.117 0.53,0.277 0.744,0.48c0.215,0.203 0.389,0.442 0.522,0.715c0.133,0.273 0.211,0.57 0.234,0.891c-0.109,0.054 -0.285,0.132 -0.527,0.234c-0.25,0.102 -0.572,0.18 -0.967,0.234c-0.394,0.055 -0.861,0.067 -1.4,0.036c-0.539,-0.032 -1.153,-0.149 -1.84,-0.352Zm2.332,-3c-0.414,0 -0.805,0.078 -1.172,0.234c-0.359,0.157 -0.676,0.371 -0.949,0.645c-0.274,0.273 -0.488,0.59 -0.645,0.949c-0.156,0.367 -0.234,0.758 -0.234,1.172c-0,0.414 0.078,0.805 0.234,1.172c0.157,0.359 0.371,0.676 0.645,0.949c0.273,0.274 0.59,0.488 0.949,0.645c0.367,0.156 0.758,0.234 1.172,0.234c0.297,0 0.588,-0.043 0.873,-0.129c0.285,-0.086 0.553,-0.215 0.803,-0.387c0.07,-0.046 0.113,-0.109 0.129,-0.187c0.015,-0.078 -0,-0.152 -0.047,-0.223c-0.047,-0.062 -0.112,-0.101 -0.194,-0.117c-0.082,-0.016 -0.154,-0.004 -0.216,0.035c-0.204,0.141 -0.418,0.246 -0.645,0.317c-0.227,0.07 -0.461,0.105 -0.703,0.105c-0.555,0 -1.047,-0.17 -1.477,-0.51c-0.429,-0.34 -0.715,-0.767 -0.855,-1.283c0.867,0.234 1.625,0.348 2.273,0.34c0.641,-0.008 1.178,-0.063 1.612,-0.164c0.433,-0.102 0.759,-0.219 0.978,-0.352c0.219,-0.125 0.336,-0.195 0.352,-0.211l0.117,-0.234c-0,-0.414 -0.078,-0.805 -0.234,-1.172c-0.157,-0.359 -0.372,-0.676 -0.645,-0.949c-0.273,-0.274 -0.594,-0.488 -0.961,-0.645c-0.359,-0.156 -0.746,-0.234 -1.16,-0.234Z" style="fill:#402f48;fill-rule:nonzero;"/><path d="M56.578,3.949c-0.57,-0.101 -0.994,-0.215 -1.271,-0.34c-0.278,-0.125 -0.416,-0.339 -0.416,-0.644c0,-0.149 0.14,-0.332 0.421,-0.551c0.282,-0.219 0.661,-0.328 1.137,-0.328c0.461,-0 0.832,0.082 1.113,0.246c0.282,0.164 0.422,0.25 0.422,0.258c0.063,0.047 0.135,0.068 0.217,0.064c0.082,-0.004 0.151,-0.037 0.205,-0.099c0.055,-0.063 0.078,-0.135 0.071,-0.217c-0.008,-0.082 -0.043,-0.151 -0.106,-0.205c-0.016,-0.016 -0.195,-0.125 -0.539,-0.328c-0.344,-0.203 -0.805,-0.305 -1.383,-0.305c-0.617,-0 -1.131,0.158 -1.541,0.475c-0.41,0.316 -0.615,0.646 -0.615,0.99c0,0.586 0.236,0.971 0.709,1.154c0.473,0.184 0.963,0.322 1.471,0.416c0.586,0.11 1.045,0.236 1.377,0.381c0.332,0.145 0.498,0.416 0.498,0.814c0,0.133 -0.024,0.254 -0.071,0.364c-0.047,0.109 -0.121,0.211 -0.222,0.304c-0.203,0.188 -0.471,0.323 -0.803,0.405c-0.332,0.082 -0.635,0.115 -0.908,0.099c-0.375,-0.023 -0.742,-0.144 -1.102,-0.363c-0.359,-0.219 -0.586,-0.43 -0.68,-0.633c-0.031,-0.078 -0.085,-0.131 -0.164,-0.158c-0.078,-0.027 -0.152,-0.025 -0.222,0.006c-0.078,0.031 -0.131,0.086 -0.158,0.164c-0.028,0.078 -0.026,0.152 0.005,0.223c0.149,0.336 0.452,0.638 0.909,0.908c0.457,0.269 0.916,0.416 1.377,0.439c0.031,0.008 0.062,0.012 0.093,0.012l0.094,0c0.328,0 0.676,-0.053 1.043,-0.158c0.367,-0.106 0.676,-0.276 0.926,-0.51c0.156,-0.148 0.275,-0.316 0.357,-0.504c0.082,-0.187 0.123,-0.387 0.123,-0.598c0,-0.671 -0.261,-1.111 -0.785,-1.318c-0.523,-0.207 -1.051,-0.361 -1.582,-0.463Z" style="fill:#402f48;fill-rule:nonzero;"/></g></svg>